<svg xmlns="http://www.w3.org/2000/svg" xmlns:xlink="http://www.w3.org/1999/xlink" width="500" zoomAndPan="magnify" viewBox="0 0 375 374.999991" height="500" preserveAspectRatio="xMidYMid meet" version="1.0"><defs><g/></defs><g fill="#000000" fill-opacity="1"><g transform="translate(86.291909, 202.399981)"><g><path d="M 2.109375 0.078125 C 1.804688 0.078125 1.566406 -0.00390625 1.390625 -0.171875 C 1.222656 -0.335938 1.140625 -0.5625 1.140625 -0.84375 C 1.140625 -1.113281 1.222656 -1.332031 1.390625 -1.5 C 1.566406 -1.675781 1.804688 -1.765625 2.109375 -1.765625 C 2.410156 -1.765625 2.644531 -1.679688 2.8125 -1.515625 C 2.988281 -1.347656 3.078125 -1.128906 3.078125 -0.859375 C 3.078125 -0.578125 2.988281 -0.347656 2.8125 -0.171875 C 2.632812 -0.00390625 2.398438 0.078125 2.109375 0.078125 Z M 2.109375 0.078125 "/></g></g></g><path fill="#ffffff" d="M 124.039062 249.824219 L 81.96875 249.824219 L 112.199219 186.875 L 157.703125 278.183594 C 164.558594 290.960938 181.707031 299.6875 198.839844 299.6875 L 224.402344 299.6875 L 221.066406 293.019531 L 171.203125 193.292969 L 112.199219 75.300781 L 0 299.6875 L 74.175781 299.6875 C 101.597656 299.6875 124.039062 277.246094 124.039062 249.824219 Z M 124.039062 249.824219 " fill-opacity="1" fill-rule="nonzero"/><path fill="#ffffff" d="M 325.164062 125.164062 L 325.164062 162.5625 L 237.898438 162.5625 L 237.898438 125.164062 C 237.898438 97.738281 215.460938 75.300781 188.035156 75.300781 L 188.035156 193.292969 L 237.898438 293.019531 L 237.898438 212.425781 L 325.164062 212.425781 L 325.164062 299.6875 C 352.585938 299.6875 375.023438 277.246094 375.023438 249.824219 L 375.023438 75.300781 C 347.601562 75.300781 325.164062 97.738281 325.164062 125.164062 Z M 325.164062 125.164062 " fill-opacity="1" fill-rule="nonzero"/></svg>